<?xml version="1.0" standalone="no"?>
<svg viewBox="0 0 200 200" xmlns="http://www.w3.org/2000/svg">
  <path fill="#CCCBCB" d="M33.7,-64.4C40.5,-54.4,40.7,-39,50.5,-27.4C60.2,-15.8,79.5,-7.9,86.2,3.9C93,15.7,87.2,31.4,75,38.7C62.8,46.1,44.2,45.2,30.6,48.9C17,52.6,8.5,61,-2,64.5C-12.5,67.9,-25,66.5,-39,63C-53.1,59.5,-68.6,54.1,-77.6,43.2C-86.6,32.4,-89.1,16.2,-84.9,2.4C-80.7,-11.4,-69.9,-22.8,-62.6,-36.5C-55.3,-50.3,-51.5,-66.4,-41.6,-74.7C-31.8,-83,-15.9,-83.4,-1.2,-81.2C13.4,-79.1,26.9,-74.4,33.7,-64.4Z" transform="translate(100 100)" />
</svg>
